<svg width="32" height="32" viewBox="0 0 32 32" fill="none" xmlns="http://www.w3.org/2000/svg">
<path d="M24 28V29C24.5523 29 25 28.5523 25 28H24ZM8 28H7C7 28.5523 7.44772 29 8 29V28ZM23.272 4.14532L22.818 5.03633L23.272 4.14532ZM23.8547 4.72801L22.9637 5.182L23.8547 4.72801ZM8.72801 4.14532L9.182 5.03633L8.72801 4.14532ZM8.14532 4.72801L9.03633 5.182L8.14532 4.72801ZM12 8.33333C11.4477 8.33333 11 8.78105 11 9.33333C11 9.88562 11.4477 10.3333 12 10.3333V8.33333ZM13.3333 10.3333C13.8856 10.3333 14.3333 9.88562 14.3333 9.33333C14.3333 8.78105 13.8856 8.33333 13.3333 8.33333V10.3333ZM12 12.3333C11.4477 12.3333 11 12.781 11 13.3333C11 13.8856 11.4477 14.3333 12 14.3333V12.3333ZM13.3333 14.3333C13.8856 14.3333 14.3333 13.8856 14.3333 13.3333C14.3333 12.781 13.8856 12.3333 13.3333 12.3333V14.3333ZM18.6667 12.3333C18.1144 12.3333 17.6667 12.781 17.6667 13.3333C17.6667 13.8856 18.1144 14.3333 18.6667 14.3333V12.3333ZM20 14.3333C20.5523 14.3333 21 13.8856 21 13.3333C21 12.781 20.5523 12.3333 20 12.3333V14.3333ZM18.6667 16.3333C18.1144 16.3333 17.6667 16.781 17.6667 17.3333C17.6667 17.8856 18.1144 18.3333 18.6667 18.3333V16.3333ZM20 18.3333C20.5523 18.3333 21 17.8856 21 17.3333C21 16.781 20.5523 16.3333 20 16.3333V18.3333ZM12 16.3333C11.4477 16.3333 11 16.781 11 17.3333C11 17.8856 11.4477 18.3333 12 18.3333V16.3333ZM13.3333 18.3333C13.8856 18.3333 14.3333 17.8856 14.3333 17.3333C14.3333 16.781 13.8856 16.3333 13.3333 16.3333V18.3333ZM18.6667 8.33333C18.1144 8.33333 17.6667 8.78105 17.6667 9.33333C17.6667 9.88562 18.1144 10.3333 18.6667 10.3333V8.33333ZM20 10.3333C20.5523 10.3333 21 9.88562 21 9.33333C21 8.78105 20.5523 8.33333 20 8.33333V10.3333ZM10.1333 5H21.8667V3H10.1333V5ZM23 6.13333V28H25V6.13333H23ZM24 27H8V29H24V27ZM9 28V6.13333H7V28H9ZM21.8667 5C22.2565 5 22.4888 5.00078 22.661 5.01484C22.8215 5.02796 22.8399 5.04747 22.818 5.03633L23.726 3.25432C23.4189 3.09786 23.108 3.0447 22.8238 3.02149C22.5513 2.99922 22.2235 3 21.8667 3V5ZM25 6.13333C25 5.77647 25.0008 5.44867 24.9785 5.17617C24.9553 4.89199 24.9021 4.5811 24.7457 4.27402L22.9637 5.182C22.9525 5.16014 22.972 5.17854 22.9852 5.33903C22.9992 5.5112 23 5.74346 23 6.13333H25ZM22.818 5.03633C22.8807 5.06829 22.9317 5.11928 22.9637 5.182L24.7457 4.27402C24.522 3.83498 24.165 3.47802 23.726 3.25432L22.818 5.03633ZM10.1333 3C9.77647 3 9.44867 2.99922 9.17617 3.02149C8.89199 3.0447 8.5811 3.09786 8.27402 3.25432L9.182 5.03633C9.16014 5.04747 9.17854 5.02796 9.33903 5.01484C9.5112 5.00078 9.74346 5 10.1333 5V3ZM9 6.13333C9 5.74346 9.00078 5.5112 9.01484 5.33903C9.02796 5.17854 9.04747 5.16014 9.03633 5.182L7.25432 4.27402C7.09786 4.5811 7.0447 4.89199 7.02149 5.17617C6.99922 5.44867 7 5.77647 7 6.13333H9ZM8.27402 3.25432C7.83498 3.47802 7.47802 3.83498 7.25432 4.27402L9.03633 5.182C9.06829 5.11928 9.11928 5.06829 9.182 5.03633L8.27402 3.25432ZM12 10.3333H13.3333V8.33333H12V10.3333ZM12 14.3333H13.3333V12.3333H12V14.3333ZM18.6667 14.3333H20V12.3333H18.6667V14.3333ZM18.6667 18.3333H20V16.3333H18.6667V18.3333ZM12 18.3333H13.3333V16.3333H12V18.3333ZM18.6667 10.3333H20V8.33333H18.6667V10.3333ZM17.6667 24V28H19.6667V24H17.6667ZM14.3333 28V24H12.3333V28H14.3333ZM16 22.3333C16.9205 22.3333 17.6667 23.0795 17.6667 24H19.6667C19.6667 21.975 18.025 20.3333 16 20.3333V22.3333ZM16 20.3333C13.975 20.3333 12.3333 21.975 12.3333 24H14.3333C14.3333 23.0795 15.0795 22.3333 16 22.3333V20.3333Z" fill="#323840" fill-opacity="0.7"/>
</svg>
